<mxfile host="Electron" agent="Mozilla/5.0 (Windows NT 10.0; Win64; x64) AppleWebKit/537.36 (KHTML, like Gecko) draw.io/25.0.2 Chrome/128.0.6613.186 Electron/32.2.5 Safari/537.36" version="25.0.2">
  <diagram name="Seite-1" id="j1itlK6nA5799ZAaplis">
    <mxGraphModel dx="1235" dy="731" grid="1" gridSize="10" guides="1" tooltips="1" connect="1" arrows="1" fold="1" page="1" pageScale="1" pageWidth="1169" pageHeight="1654" math="0" shadow="0">
      <root>
        <mxCell id="0" />
        <mxCell id="1" parent="0" />
        <mxCell id="Js77z3bHepjrusdKZ4IQ-38" value="" style="rounded=0;whiteSpace=wrap;html=1;fillColor=none;" vertex="1" parent="1">
          <mxGeometry x="360" y="30" width="670" height="540" as="geometry" />
        </mxCell>
        <mxCell id="F2wacM9lmhaU2P1jnXJb-22" style="rounded=0;orthogonalLoop=1;jettySize=auto;html=1;entryX=0;entryY=0;entryDx=0;entryDy=0;dashed=1;dashPattern=8 8;endArrow=none;endFill=0;startArrow=block;startFill=1;" parent="1" source="F2wacM9lmhaU2P1jnXJb-10" target="Js77z3bHepjrusdKZ4IQ-4" edge="1">
          <mxGeometry relative="1" as="geometry">
            <mxPoint x="589" y="130" as="sourcePoint" />
            <mxPoint x="710.5025253169417" y="210.25126265847086" as="targetPoint" />
          </mxGeometry>
        </mxCell>
        <mxCell id="F2wacM9lmhaU2P1jnXJb-25" value="&amp;lt;&amp;lt;include&amp;gt;&amp;gt;" style="edgeLabel;html=1;align=center;verticalAlign=middle;resizable=0;points=[];" parent="F2wacM9lmhaU2P1jnXJb-22" vertex="1" connectable="0">
          <mxGeometry x="-0.0431" y="-2" relative="1" as="geometry">
            <mxPoint as="offset" />
          </mxGeometry>
        </mxCell>
        <mxCell id="F2wacM9lmhaU2P1jnXJb-10" value="Akkorde bearbeiten" style="ellipse;whiteSpace=wrap;html=1;" parent="1" vertex="1">
          <mxGeometry x="450" y="80" width="140" height="70" as="geometry" />
        </mxCell>
        <mxCell id="F2wacM9lmhaU2P1jnXJb-14" value="Benutzer" style="shape=umlActor;verticalLabelPosition=bottom;verticalAlign=top;html=1;" parent="1" vertex="1">
          <mxGeometry x="200" y="130" width="30" height="60" as="geometry" />
        </mxCell>
        <mxCell id="F2wacM9lmhaU2P1jnXJb-19" style="rounded=0;orthogonalLoop=1;jettySize=auto;html=1;exitX=0;exitY=0.5;exitDx=0;exitDy=0;endArrow=none;endFill=0;" parent="1" source="F2wacM9lmhaU2P1jnXJb-10" edge="1">
          <mxGeometry relative="1" as="geometry">
            <mxPoint x="240" y="140" as="targetPoint" />
          </mxGeometry>
        </mxCell>
        <mxCell id="Js77z3bHepjrusdKZ4IQ-4" value="Akkorde hinzufügen" style="ellipse;whiteSpace=wrap;html=1;" vertex="1" parent="1">
          <mxGeometry x="620" y="180" width="140" height="70" as="geometry" />
        </mxCell>
        <mxCell id="Js77z3bHepjrusdKZ4IQ-8" value="Akkordname/-noten zuweisen" style="ellipse;whiteSpace=wrap;html=1;" vertex="1" parent="1">
          <mxGeometry x="780" y="280" width="140" height="70" as="geometry" />
        </mxCell>
        <mxCell id="Js77z3bHepjrusdKZ4IQ-10" style="rounded=0;orthogonalLoop=1;jettySize=auto;html=1;entryX=0;entryY=0;entryDx=0;entryDy=0;dashed=1;dashPattern=8 8;endArrow=none;endFill=0;startArrow=block;startFill=1;exitX=0.927;exitY=0.817;exitDx=0;exitDy=0;exitPerimeter=0;" edge="1" parent="1" source="Js77z3bHepjrusdKZ4IQ-4" target="Js77z3bHepjrusdKZ4IQ-8">
          <mxGeometry relative="1" as="geometry">
            <mxPoint x="710" y="246" as="sourcePoint" />
            <mxPoint x="765" y="300" as="targetPoint" />
          </mxGeometry>
        </mxCell>
        <mxCell id="Js77z3bHepjrusdKZ4IQ-11" value="&amp;lt;&amp;lt;include&amp;gt;&amp;gt;" style="edgeLabel;html=1;align=center;verticalAlign=middle;resizable=0;points=[];" vertex="1" connectable="0" parent="Js77z3bHepjrusdKZ4IQ-10">
          <mxGeometry x="-0.0431" y="-2" relative="1" as="geometry">
            <mxPoint as="offset" />
          </mxGeometry>
        </mxCell>
        <mxCell id="Js77z3bHepjrusdKZ4IQ-14" value="Akkorde auswählen" style="ellipse;whiteSpace=wrap;html=1;" vertex="1" parent="1">
          <mxGeometry x="690" y="80" width="140" height="70" as="geometry" />
        </mxCell>
        <mxCell id="Js77z3bHepjrusdKZ4IQ-15" style="rounded=0;orthogonalLoop=1;jettySize=auto;html=1;dashed=1;dashPattern=8 8;endArrow=none;endFill=0;startArrow=block;startFill=1;exitX=1;exitY=0.5;exitDx=0;exitDy=0;" edge="1" parent="1" target="Js77z3bHepjrusdKZ4IQ-14" source="F2wacM9lmhaU2P1jnXJb-10">
          <mxGeometry relative="1" as="geometry">
            <mxPoint x="809.4974746830583" y="119.74873734152914" as="sourcePoint" />
            <mxPoint x="575" y="337" as="targetPoint" />
          </mxGeometry>
        </mxCell>
        <mxCell id="Js77z3bHepjrusdKZ4IQ-16" value="&amp;lt;&amp;lt;include&amp;gt;&amp;gt;" style="edgeLabel;html=1;align=center;verticalAlign=middle;resizable=0;points=[];" vertex="1" connectable="0" parent="Js77z3bHepjrusdKZ4IQ-15">
          <mxGeometry x="-0.0431" y="-2" relative="1" as="geometry">
            <mxPoint as="offset" />
          </mxGeometry>
        </mxCell>
        <mxCell id="Js77z3bHepjrusdKZ4IQ-17" style="rounded=0;orthogonalLoop=1;jettySize=auto;html=1;endArrow=none;endFill=0;exitX=0.071;exitY=0.286;exitDx=0;exitDy=0;exitPerimeter=0;" edge="1" parent="1" source="Js77z3bHepjrusdKZ4IQ-18">
          <mxGeometry relative="1" as="geometry">
            <mxPoint x="240" y="175" as="targetPoint" />
            <mxPoint x="420" y="260" as="sourcePoint" />
          </mxGeometry>
        </mxCell>
        <mxCell id="Js77z3bHepjrusdKZ4IQ-18" value="Kompositionsname&lt;div&gt;&amp;amp; Geschwindigkeit eingeben&lt;/div&gt;" style="ellipse;whiteSpace=wrap;html=1;" vertex="1" parent="1">
          <mxGeometry x="420" y="200" width="140" height="70" as="geometry" />
        </mxCell>
        <mxCell id="Js77z3bHepjrusdKZ4IQ-19" style="rounded=0;orthogonalLoop=1;jettySize=auto;html=1;endArrow=none;endFill=0;exitX=0.071;exitY=0.286;exitDx=0;exitDy=0;exitPerimeter=0;" edge="1" parent="1" source="Js77z3bHepjrusdKZ4IQ-20">
          <mxGeometry relative="1" as="geometry">
            <mxPoint x="250" y="220" as="targetPoint" />
            <mxPoint x="420" y="395" as="sourcePoint" />
          </mxGeometry>
        </mxCell>
        <mxCell id="Js77z3bHepjrusdKZ4IQ-20" value="Rhythmus editieren" style="ellipse;whiteSpace=wrap;html=1;" vertex="1" parent="1">
          <mxGeometry x="410" y="310" width="140" height="70" as="geometry" />
        </mxCell>
        <mxCell id="Js77z3bHepjrusdKZ4IQ-21" value="Spalten auswählen" style="ellipse;whiteSpace=wrap;html=1;" vertex="1" parent="1">
          <mxGeometry x="610" y="380" width="140" height="70" as="geometry" />
        </mxCell>
        <mxCell id="Js77z3bHepjrusdKZ4IQ-22" style="rounded=0;orthogonalLoop=1;jettySize=auto;html=1;entryX=0;entryY=0;entryDx=0;entryDy=0;dashed=1;dashPattern=8 8;endArrow=none;endFill=0;startArrow=block;startFill=1;exitX=0.994;exitY=0.703;exitDx=0;exitDy=0;exitPerimeter=0;" edge="1" parent="1" target="Js77z3bHepjrusdKZ4IQ-21" source="Js77z3bHepjrusdKZ4IQ-20">
          <mxGeometry relative="1" as="geometry">
            <mxPoint x="305" y="370" as="sourcePoint" />
            <mxPoint x="375" y="432" as="targetPoint" />
          </mxGeometry>
        </mxCell>
        <mxCell id="Js77z3bHepjrusdKZ4IQ-23" value="&amp;lt;&amp;lt;include&amp;gt;&amp;gt;" style="edgeLabel;html=1;align=center;verticalAlign=middle;resizable=0;points=[];" vertex="1" connectable="0" parent="Js77z3bHepjrusdKZ4IQ-22">
          <mxGeometry x="-0.0431" y="-2" relative="1" as="geometry">
            <mxPoint as="offset" />
          </mxGeometry>
        </mxCell>
        <mxCell id="Js77z3bHepjrusdKZ4IQ-24" value="Spalten hinzufügen/löschen" style="ellipse;whiteSpace=wrap;html=1;" vertex="1" parent="1">
          <mxGeometry x="750" y="470" width="140" height="70" as="geometry" />
        </mxCell>
        <mxCell id="Js77z3bHepjrusdKZ4IQ-25" style="rounded=0;orthogonalLoop=1;jettySize=auto;html=1;entryX=0;entryY=0;entryDx=0;entryDy=0;dashed=1;dashPattern=8 8;endArrow=none;endFill=0;startArrow=block;startFill=1;exitX=1;exitY=1;exitDx=0;exitDy=0;" edge="1" parent="1" target="Js77z3bHepjrusdKZ4IQ-24" source="Js77z3bHepjrusdKZ4IQ-21">
          <mxGeometry relative="1" as="geometry">
            <mxPoint x="337" y="440" as="sourcePoint" />
            <mxPoint x="195" y="498" as="targetPoint" />
          </mxGeometry>
        </mxCell>
        <mxCell id="Js77z3bHepjrusdKZ4IQ-26" value="&amp;lt;&amp;lt;include&amp;gt;&amp;gt;" style="edgeLabel;html=1;align=center;verticalAlign=middle;resizable=0;points=[];" vertex="1" connectable="0" parent="Js77z3bHepjrusdKZ4IQ-25">
          <mxGeometry x="-0.0431" y="-2" relative="1" as="geometry">
            <mxPoint as="offset" />
          </mxGeometry>
        </mxCell>
        <mxCell id="Js77z3bHepjrusdKZ4IQ-27" value="Akkordnoten löschen" style="ellipse;whiteSpace=wrap;html=1;" vertex="1" parent="1">
          <mxGeometry x="870" y="160" width="140" height="70" as="geometry" />
        </mxCell>
        <mxCell id="Js77z3bHepjrusdKZ4IQ-28" style="rounded=0;orthogonalLoop=1;jettySize=auto;html=1;entryX=0;entryY=0;entryDx=0;entryDy=0;dashed=1;dashPattern=8 8;endArrow=none;endFill=0;startArrow=block;startFill=1;exitX=0.949;exitY=0.754;exitDx=0;exitDy=0;exitPerimeter=0;" edge="1" parent="1" target="Js77z3bHepjrusdKZ4IQ-27" source="Js77z3bHepjrusdKZ4IQ-14">
          <mxGeometry relative="1" as="geometry">
            <mxPoint x="915" y="100" as="sourcePoint" />
            <mxPoint x="985" y="162" as="targetPoint" />
          </mxGeometry>
        </mxCell>
        <mxCell id="Js77z3bHepjrusdKZ4IQ-29" value="&amp;lt;&amp;lt;include&amp;gt;&amp;gt;" style="edgeLabel;html=1;align=center;verticalAlign=middle;resizable=0;points=[];" vertex="1" connectable="0" parent="Js77z3bHepjrusdKZ4IQ-28">
          <mxGeometry x="-0.0431" y="-2" relative="1" as="geometry">
            <mxPoint as="offset" />
          </mxGeometry>
        </mxCell>
        <mxCell id="Js77z3bHepjrusdKZ4IQ-34" value="Akkord &amp;amp; Rhythmus eintragen" style="ellipse;whiteSpace=wrap;html=1;" vertex="1" parent="1">
          <mxGeometry x="401" y="451" width="140" height="70" as="geometry" />
        </mxCell>
        <mxCell id="Js77z3bHepjrusdKZ4IQ-35" style="rounded=0;orthogonalLoop=1;jettySize=auto;html=1;entryX=0.5;entryY=0;entryDx=0;entryDy=0;dashed=1;dashPattern=8 8;endArrow=none;endFill=0;startArrow=block;startFill=1;exitX=0.5;exitY=1;exitDx=0;exitDy=0;" edge="1" parent="1" target="Js77z3bHepjrusdKZ4IQ-34" source="Js77z3bHepjrusdKZ4IQ-20">
          <mxGeometry relative="1" as="geometry">
            <mxPoint x="340" y="430" as="sourcePoint" />
            <mxPoint x="166" y="503" as="targetPoint" />
          </mxGeometry>
        </mxCell>
        <mxCell id="Js77z3bHepjrusdKZ4IQ-36" value="&amp;lt;&amp;lt;include&amp;gt;&amp;gt;" style="edgeLabel;html=1;align=center;verticalAlign=middle;resizable=0;points=[];" vertex="1" connectable="0" parent="Js77z3bHepjrusdKZ4IQ-35">
          <mxGeometry x="-0.0431" y="-2" relative="1" as="geometry">
            <mxPoint as="offset" />
          </mxGeometry>
        </mxCell>
        <mxCell id="Js77z3bHepjrusdKZ4IQ-39" value="Akkordoberfläche benutzen" style="edgeLabel;html=1;align=center;verticalAlign=middle;resizable=0;points=[];" vertex="1" connectable="0" parent="1">
          <mxGeometry x="589.9952941176471" y="100.00000000000011" as="geometry">
            <mxPoint x="-157" y="-59" as="offset" />
          </mxGeometry>
        </mxCell>
      </root>
    </mxGraphModel>
  </diagram>
</mxfile>
